<?xml version="1.0" standalone="no"?>
<!DOCTYPE svg PUBLIC "-//W3C//DTD SVG 20010904//EN"
 "http://www.w3.org/TR/2001/REC-SVG-20010904/DTD/svg10.dtd">
<svg version="1.0" xmlns="http://www.w3.org/2000/svg"
 width="848.000000pt" height="848.000000pt" viewBox="0 0 848.000000 848.000000"
 preserveAspectRatio="xMidYMid meet">
<metadata>
Created by potrace 1.11, written by Peter Selinger 2001-2013
</metadata>
<g transform="translate(0.000000,848.000000) scale(0.100000,-0.100000)"
fill="#000000" stroke="none">
<path d="M2472 7539 l-964 -664 257 -3 c164 -1 254 -6 250 -12 -4 -7 726 -10
2109 -10 l2116 0 0 -2265 0 -2265 -606 0 c-585 0 -719 6 -748 32 -6 4 -18 8
-28 8 -10 0 -18 6 -18 13 -1 7 -5 6 -13 -5 -9 -11 -18 -13 -29 -7 -9 5 -58 12
-108 14 -50 3 -107 9 -128 13 -64 13 -698 5 -1032 -13 -47 -3 -130 -6 -185 -8
-55 -1 -105 -6 -112 -10 -7 -4 -23 -5 -37 -1 -13 3 -49 1 -79 -6 -87 -18 -223
-22 -909 -27 l-648 -4 -1 118 c-1 103 -2 112 -11 68 -12 -67 -12 -291 0 -335
l10 -35 1 43 1 42 2085 0 c1845 0 2086 -2 2091 -15 4 -8 12 -15 19 -15 7 0 15
-3 17 -7 2 -5 24 -18 50 -31 26 -13 50 -27 53 -33 4 -5 15 -9 26 -9 10 0 19
-4 19 -10 0 -5 6 -10 14 -10 8 0 30 -9 48 -19 48 -28 135 -47 199 -44 l57 3 7
-98 c4 -53 11 -101 15 -107 5 -5 10 -23 12 -39 l3 -29 65 64 c81 79 124 135
115 149 -3 5 9 29 27 53 48 61 70 91 145 197 37 52 85 120 108 150 23 30 44
63 48 73 3 9 11 17 17 17 5 0 10 4 10 10 0 5 48 76 107 157 59 81 130 181 157
221 59 86 216 301 234 322 7 8 36 47 66 86 l53 71 6 269 c5 173 4 270 -3 272
-5 2 -1 16 10 30 18 26 19 82 26 2140 4 1161 4 2112 2 2112 -3 0 -85 -85 -182
-190 -112 -120 -185 -190 -197 -190 -10 0 -19 4 -19 9 0 5 76 89 169 187 l169
179 -87 7 c-47 4 -792 14 -1656 23 -863 8 -1718 18 -1900 21 l-330 6 -963
-663z"/>
<path d="M3830 6686 c0 -17 -25 -24 -121 -32 -41 -3 -101 -13 -133 -21 -39 -9
-61 -11 -65 -4 -10 15 -48 2 -54 -19 -3 -10 -25 -25 -53 -35 -27 -9 -64 -23
-83 -31 -27 -12 -36 -12 -42 -3 -15 25 -269 -148 -269 -184 0 -10 -21 -43 -47
-73 -38 -44 -49 -51 -53 -38 -5 14 -17 3 -52 -47 -62 -87 -98 -162 -98 -202 0
-19 -8 -58 -18 -88 -26 -76 -46 -281 -37 -387 4 -48 16 -132 27 -187 12 -55
24 -125 27 -155 9 -68 59 -167 128 -253 21 -26 23 -27 23 -7 0 17 10 10 50
-36 28 -31 50 -65 50 -75 0 -24 80 -98 188 -176 75 -54 87 -60 90 -43 3 19 17
20 590 22 l587 3 -84 59 c-46 33 -86 68 -89 78 -7 27 -95 82 -102 64 -4 -10
-23 -3 -75 26 -38 22 -98 55 -132 74 -93 50 -103 57 -103 76 0 23 -40 45 -50
28 -10 -16 -54 9 -175 95 -104 74 -145 114 -145 140 0 12 -11 32 -25 45 -21
20 -25 21 -25 6 0 -29 -32 -2 -69 58 -73 122 -88 270 -37 378 29 62 106 144
106 113 0 -17 2 -17 24 4 14 13 26 33 28 44 5 34 146 101 276 130 12 3 29 -1
36 -9 21 -20 44 -17 57 7 11 21 17 21 113 17 104 -6 206 -32 206 -54 0 -7 20
-19 45 -27 36 -13 45 -13 45 -3 0 20 38 9 126 -38 44 -23 84 -52 90 -65 7 -14
13 -18 16 -10 3 9 22 1 59 -24 79 -54 99 -73 99 -94 0 -19 110 -123 129 -123
8 0 10 127 9 426 l-3 426 -65 35 c-50 26 -66 31 -68 20 -4 -20 -162 51 -162
73 0 12 -2 12 -9 2 -13 -22 -221 39 -221 64 0 15 -81 28 -90 14 -4 -7 -30 -7
-81 0 -41 5 -111 10 -156 10 -49 0 -83 4 -83 10 0 6 -11 10 -25 10 -15 0 -25
-6 -25 -14z"/>
<path d="M5931 4654 c-147 -78 -399 -234 -621 -382 -118 -79 -219 -146 -223
-149 -14 -8 9 31 47 80 51 67 59 84 40 91 -29 11 -53 -14 -138 -144 -47 -71
-96 -134 -108 -141 -12 -7 -64 -42 -114 -78 -321 -230 -599 -400 -620 -378
-11 11 38 87 109 168 145 165 338 328 489 411 77 43 90 60 51 66 -77 11 -383
-224 -584 -449 -103 -115 -129 -153 -129 -192 0 -53 83 -63 176 -20 55 25 292
179 499 324 61 43 84 55 73 39 -10 -14 -28 -43 -41 -65 -13 -22 -61 -101 -107
-175 -172 -280 -259 -428 -292 -496 -18 -38 -36 -71 -39 -74 -4 -3 -31 -52
-61 -110 -30 -58 -60 -114 -65 -125 -29 -52 -53 -107 -57 -129 -2 -13 -14 -42
-25 -64 -26 -51 -26 -55 0 -40 11 7 35 40 53 73 40 72 179 331 233 435 89 170
484 821 527 868 47 52 585 409 883 587 76 45 133 86 136 97 3 10 2 18 -1 18
-4 -1 -45 -21 -91 -46z"/>
<path d="M4510 4606 c0 -8 5 -18 10 -21 6 -3 10 3 10 14 0 12 -4 21 -10 21 -5
0 -10 -6 -10 -14z"/>
<path d="M3460 4475 c0 -12 28 -35 44 -35 13 0 5 24 -11 36 -23 18 -33 17 -33
-1z"/>
<path d="M4680 4477 c0 -11 23 -44 50 -75 28 -31 50 -60 50 -64 0 -4 -226 -8
-502 -9 -363 0 -497 -3 -481 -11 12 -6 26 -23 32 -39 11 -32 51 -59 51 -34 0
22 5 20 89 -32 124 -76 221 -155 221 -178 0 -12 22 -42 49 -69 41 -40 50 -45
53 -30 3 16 8 12 32 -18 l28 -38 72 66 c181 166 358 280 423 272 39 -5 39 -4
13 29 -11 14 -20 38 -20 54 0 21 -19 47 -80 111 -54 57 -79 77 -80 65z"/>
<path d="M4890 4184 c0 -17 -20 -33 -83 -68 -102 -58 -214 -141 -324 -241 -89
-82 -87 -78 -59 -149 l12 -29 94 65 c116 79 252 173 343 237 38 26 78 62 89
79 l20 32 -21 33 c-20 31 -21 31 -21 7 -1 -23 -3 -21 -25 15 -20 31 -25 35
-25 19z"/>
<path d="M4936 3856 c-113 -180 -336 -550 -336 -557 0 -4 9 -9 20 -12 25 -6
37 -36 45 -111 l7 -58 117 116 c76 75 125 116 139 116 21 0 42 -26 42 -53 0
-14 -188 -230 -255 -294 -39 -37 -85 -44 -123 -17 -17 12 -22 25 -22 58 0 67
-12 166 -20 166 -4 0 -32 -48 -63 -107 -75 -146 -211 -399 -240 -448 -45 -76
-118 -86 -88 -12 7 17 21 55 31 82 18 50 41 102 62 140 7 11 30 56 53 100 123
237 329 593 471 813 19 28 32 52 29 52 -3 0 -268 -177 -353 -235 -1 -1 -7 -30
-13 -65 -12 -77 -44 -142 -100 -200 -33 -35 -43 -41 -46 -28 -4 14 -13 10 -54
-20 -27 -20 -49 -42 -49 -49 0 -26 -136 -82 -248 -101 -43 -8 -55 -7 -59 4 -7
18 -41 18 -59 -1 -40 -39 -314 6 -314 51 0 19 -50 30 -60 13 -13 -19 -160 56
-160 82 0 11 -4 19 -8 19 -5 0 -66 38 -137 85 -88 58 -131 81 -136 73 -6 -9
-12 -8 -26 2 -44 34 -73 65 -73 79 0 22 -111 131 -132 131 -17 0 -18 -24 -18
-430 l0 -429 58 -39 c70 -47 92 -56 92 -37 0 10 12 7 45 -12 25 -13 45 -31 45
-38 0 -7 24 -27 53 -43 102 -59 291 -123 272 -93 -8 14 -3 14 61 -5 31 -9 54
-21 54 -29 0 -19 8 -23 68 -31 44 -5 51 -4 47 8 -5 12 3 13 47 7 29 -4 85 -8
124 -8 54 -1 73 -5 78 -16 7 -19 82 -21 93 -2 5 9 46 19 103 27 52 7 101 15
109 18 10 4 13 1 9 -10 -5 -12 3 -13 55 -5 81 12 128 32 134 57 3 11 10 20 15
20 5 0 43 16 85 35 51 24 73 30 69 20 -7 -19 -3 -19 44 5 23 12 40 28 40 38 1
23 110 100 110 77 0 -14 4 -14 28 4 65 46 152 139 152 162 0 13 19 52 43 87
36 54 43 59 47 41 9 -35 73 93 81 161 4 30 15 98 24 150 25 137 23 397 -4 503
-11 43 -24 84 -28 91 -6 9 -30 -21 -77 -98z"/>
<path d="M4784 3197 l-132 -133 -6 85 c-8 99 -19 123 -49 119 -19 -3 -22 -8
-19 -48 1 -25 4 -54 7 -65 2 -11 4 -48 4 -83 1 -56 3 -64 25 -73 14 -7 35 -9
48 -6 19 5 158 150 271 283 18 22 14 54 -7 54 -6 0 -70 -60 -142 -133z"/>
<path d="M3826 2065 c-10 -11 -36 -15 -88 -15 -40 0 -104 -5 -142 -10 -48 -7
-72 -7 -76 0 -9 15 -72 0 -66 -15 5 -14 -1 -16 -113 -46 -87 -22 -84 -22 -75
-8 10 17 -27 6 -128 -36 -60 -25 -85 -41 -84 -52 0 -9 -14 -27 -33 -40 l-33
-22 71 4 c39 2 69 1 67 -3 -2 -4 62 -8 142 -10 153 -2 454 -8 750 -15 132 -3
172 -1 172 8 0 7 -10 35 -21 63 -33 80 -8 109 47 53 40 -40 52 -55 70 -95 20
-41 36 -44 219 -36 l120 5 -40 24 c-22 14 -42 28 -45 33 -3 4 -51 28 -105 53
-146 68 -145 67 -145 82 0 7 -1 13 -2 13 -2 0 -25 7 -52 15 -43 13 -47 13 -42
-1 4 -11 1 -14 -13 -9 -44 14 -162 35 -228 41 -47 4 -74 11 -77 20 -7 18 -31
18 -50 -1z"/>
<path d="M4170 1925 c0 -3 9 -24 21 -47 11 -22 23 -52 25 -65 3 -13 13 -41 24
-61 11 -20 20 -41 20 -47 1 -22 38 -56 63 -59 15 -2 26 0 25 4 -24 60 -137
254 -155 265 -13 9 -23 13 -23 10z"/>
<path d="M2855 1790 c-8 -13 4 -32 16 -25 12 8 12 35 0 35 -6 0 -13 -4 -16
-10z"/>
</g>
</svg>
